<?xml version="1.0" encoding="UTF-8"?>
<svg id="Layer_1" xmlns="http://www.w3.org/2000/svg" version="1.1" viewBox="0 0 221.1 243.29">
  <!-- Generator: Adobe Illustrator 29.3.1, SVG Export Plug-In . SVG Version: 2.1.0 Build 151)  -->
  <defs>
    <style>
      .st0 {
        stroke: #f1a1ac;
      }

      .st0, .st1 {
        fill: none;
        stroke-miterlimit: 10;
        stroke-width: 3.54px;
      }

      .st1 {
        stroke: #568061;
      }

      .st2 {
        fill: #3f2f1b;
        font-family: AllRoundGothic-Book, 'All Round Gothic';
        font-size: 15.03px;
        letter-spacing: .6em;
      }

      .st3 {
        fill: #3a2b19;
      }
    </style>
  </defs>
  <circle class="st1" cx="83.07" cy="91.44" r="25.91"/>
  <circle class="st1" cx="134.87" cy="91.44" r="25.91"/>
  <circle class="st1" cx="57.16" cy="136.86" r="25.91"/>
  <circle class="st1" cx="108.96" cy="136.36" r="25.91"/>
  <circle class="st0" cx="108.96" cy="41.53" r="25.91"/>
  <circle class="st1" cx="160.76" cy="136.36" r="25.91" transform="translate(.41 273.2) rotate(-80.78)"/>
  <g>
    <path class="st3" d="M57.03,184.05c0,7.44,6,13.48,13.34,13.48,4.33,0,8.25-1.85,10.86-4.78h-10.19c-.5,0-.9-.41-.9-.9,0-.54.41-.95.9-.95h11.99c.54,0,.95.41.95.95,0,.27-.09.45-.23.68-2.98,4.19-7.93,6.81-13.39,6.81-8.43,0-15.28-6.85-15.28-15.28s6.85-15.28,15.28-15.28c5.36,0,10.23,2.84,12.98,7.26.09.14.14.27.14.5,0,.54-.41.95-.95.95-.36,0-.63-.18-.81-.45-2.34-3.88-6.58-6.45-11.36-6.45-7.35,0-13.34,6.04-13.34,13.48Z"/>
    <path class="st3" d="M103.14,168.77c8.43,0,15.28,6.85,15.28,15.28s-6.85,15.28-15.28,15.28-15.28-6.85-15.28-15.28,6.85-15.28,15.28-15.28ZM103.14,197.53c7.35,0,13.34-6.04,13.34-13.48s-6-13.48-13.34-13.48-13.34,6.04-13.34,13.48,6,13.48,13.34,13.48Z"/>
    <path class="st3" d="M140.92,169.45c6.45,0,11.68,5.41,11.68,11.81,0,5.18-3.38,9.6-8.02,11.09l5.41,5.05c.18.18.32.45.32.72,0,.5-.41.9-.95.9-.32,0-.5-.18-.72-.36l-6.18-5.81c-.5.04-.99.09-1.49.09h-15.46v5.14c0,.54-.41.95-.95.95s-.95-.41-.95-.95v-27.68c0-.54.41-.95.95-.95h16.36ZM140.96,171.25h-15.46v19.88h15.42c5.36,0,9.74-4.42,9.74-9.87s-4.37-10.01-9.69-10.01Z"/>
    <path class="st3" d="M158.01,170.03c0-.54.41-.95.95-.95s.95.4.95.95v28.04c0,.54-.41.95-.95.95s-.95-.41-.95-.95v-28.04Z"/>
  </g>
  <text class="st2" transform="translate(27.44 219.57)"><tspan x="0" y="0">SHAVED ICE</tspan></text>
</svg>