<?xml version="1.0" encoding="UTF-8"?>
<svg id="Layer_1" xmlns="http://www.w3.org/2000/svg" xmlns:xlink="http://www.w3.org/1999/xlink" version="1.1" viewBox="0 0 216 216">
  <!-- Generator: Adobe Illustrator 29.3.1, SVG Export Plug-In . SVG Version: 2.1.0 Build 151)  -->
  <defs>
    <style>
      .st0 {
        fill: #fff;
      }

      .st0, .st1 {
        fill-rule: evenodd;
      }

      .st1 {
        fill: url(#linear-gradient);
      }

      .st2 {
        fill: #f2664c;
        font-family: MenckenStdText-Bold, 'Mencken Std Text';
        font-size: 40px;
      }

      .st2, .st3 {
        font-weight: 700;
      }

      .st3 {
        fill: #3860ad;
        font-family: Sloop-ScriptBoldOne, Sloop;
        font-size: 35px;
      }
    </style>
    <linearGradient id="linear-gradient" x1="64.04" y1="10.72" x2="198.07" y2="206.01" gradientUnits="userSpaceOnUse">
      <stop offset=".22" stop-color="#f2664c"/>
      <stop offset=".51" stop-color="#f0cae0"/>
      <stop offset=".87" stop-color="#3860ad"/>
    </linearGradient>
  </defs>
  <text class="st2" transform="translate(43.11 172.71)"><tspan x="0" y="0">VIVA</tspan></text>
  <text class="st3" transform="translate(14.2 142.88)"><tspan x="0" y="0">Forma</tspan></text>
  <g>
    <path class="st1" d="M42.35,114.45c13.93-44.47,38.05-73.55,77.72-79.18,15.99-.68,35.26,5.04,48.39,18.2-10.75.41-23.33,1.07-29.4,2.79.27-2.13-1.41-4.89-3.35-6.38-1.58-1.21-2.84-1.04-5.11-1.09-1.62-.03-3.33-1.07-4.17-1.2-.82-.13-1.42,1.53-2.05,1.76-.33.12-.63.24-.9.36-.16.07.61,1.27.46,1.34-.17.09-1.24-.96-1.38-.87-3.26,1.95-.09,4.01-.85,6.05-2.96-.54-10.57-2.86-12.37-2.01-1.08.51-3.45,7.09-3.45,7.09-5.07,8.53-6.38,22.92-12.51,28.83l-19.59,14.49c-1.53.75-.5,7.74,1.05,8.02,13.7,1.9,28.77,15.4,44.09,30.92l-4.82-12.03-3.09-.38c-6.34-9.5-13.21-17.9-21.56-23.28l11.76-3.39c17.16,26.15,35.93,53.5,48.84,85.41l.56-13.26c-1.24-1.18-2.56-1.9-3.73-3.55-7.69-28.68-20.65-39.46-29.85-62.9,5.42-10.24-2.42-16.77-6.78-26.82-.91-5.74,5.02-14.86,12.66-18.04-.45,11.29,1.17,22.27,3.54,33.14,2.86,13.4,11.09,30.43,23.69,38.2,6.16,3.8,13.6,4.91,20.6,3.08,21.86-5.72,31.05-24.26,31.05-43.74,0-46.13-45.74-70.31-76.93-69.88-42.3.58-77.57,40-82.52,88.33Z"/>
    <path class="st0" d="M171.45,55.44c10.62,13.78,15.36,30.05,15.64,44.44.63,32.11-25.04,44.92-40.84,29.12-10.01-10.01-16.65-28.92-18.39-53.07-.19-8.38,1.63-10.97,5.13-11.8.07-.02,3.03,2.51,2.4,10.65,3.2-5.37,4.04-11.49,4.04-11.49,5.71-2.25,23.06-6.9,32.02-7.84Z"/>
  </g>
</svg>