<?xml version="1.0" encoding="UTF-8"?>
<svg id="Layer_1" data-name="Layer 1" xmlns="http://www.w3.org/2000/svg" xmlns:xlink="http://www.w3.org/1999/xlink" viewBox="0 0 213.46 186.34">
  <defs>
    <style>
      .cls-1 {
        fill: #8baddb;
        font-family: Sloop-ScriptBoldOne, Sloop;
        font-size: 39.82px;
      }

      .cls-1, .cls-2 {
        font-weight: 700;
      }

      .cls-2 {
        fill: #ef9b8f;
        font-family: MenckenStdText-Bold, 'Mencken Std Text';
        font-size: 45.51px;
      }

      .cls-3 {
        fill: url(#linear-gradient);
        fill-rule: evenodd;
      }

      .cls-4 {
        letter-spacing: -.13em;
      }
    </style>
    <linearGradient id="linear-gradient" x1="56.71" y1="-17.52" x2="209.21" y2="204.69" gradientUnits="userSpaceOnUse">
      <stop offset=".22" stop-color="#ef9b8f"/>
      <stop offset=".51" stop-color="#f0cae0"/>
      <stop offset=".87" stop-color="#637eaa"/>
    </linearGradient>
  </defs>
  <text class="cls-2" transform="translate(32.89 166.8)"><tspan x="0" y="0">VI</tspan><tspan class="cls-4" x="47.29" y="0">V</tspan><tspan x="72.64" y="0">A</tspan></text>
  <text class="cls-1" transform="translate(0 132.86)"><tspan x="0" y="0">Forma</tspan></text>
  <path class="cls-3" d="M125.92,0C77.79.66,37.66,45.52,32.03,100.51,47.88,49.91,75.33,16.82,120.46,10.41c18.2-.77,40.12,5.73,55.06,20.71-12.23.46-26.55,1.22-33.45,3.17.3-2.42-1.6-5.57-3.81-7.26-1.8-1.38-3.23-1.19-5.81-1.24-1.85-.04-3.79-1.21-4.74-1.36-.93-.14-1.61,1.74-2.34,2-.38.14-.72.27-1.03.41-.18.08.69,1.45.53,1.53-.19.1-1.41-1.09-1.58-.99-3.71,2.22-.1,4.56-.97,6.89-3.37-.62-12.03-3.26-14.08-2.28-1.23.58-3.93,8.07-3.93,8.07-5.77,9.7-7.26,26.08-14.24,32.8l-22.3,16.49c-1.74.85-.57,8.81,1.2,9.12,15.59,2.17,32.74,17.52,50.17,35.18l-5.49-13.68-3.52-.44c-7.21-10.81-15.03-20.37-24.53-26.49l13.38-3.86c19.52,29.75,40.88,60.88,55.57,97.18l.64-15.08c-1.41-1.34-2.91-2.16-4.24-4.04-8.74-32.63-23.5-44.9-33.96-71.57,6.17-11.66-2.75-19.08-7.72-30.52-1.03-6.53,5.71-16.91,14.41-20.52-.52,12.85,1.33,25.34,4.03,37.71,3.25,15.25,12.62,34.63,26.96,43.47,7.01,4.32,15.47,5.58,23.44,3.5,24.88-6.51,35.33-27.6,35.33-49.77C213.46,27.03,161.41-.48,125.92,0ZM150.26,117.06c-11.39-11.39-18.94-32.9-20.93-60.38-.22-9.53,1.86-12.48,5.84-13.43.08-.02,3.45,2.85,2.73,12.11,3.64-6.11,4.6-13.07,4.6-13.07,6.5-2.56,26.24-7.85,36.43-8.92,12.08,15.67,17.48,34.19,17.8,50.56.71,36.54-28.49,51.11-46.46,33.13Z"/>
</svg>